<svg enable-background="new 0 0 417 105" viewBox="0 0 417 105" xmlns="http://www.w3.org/2000/svg"><g fill="#1e326b"><path d="m19.06 82.54 45.32-61.08h19.7l-21.67 29.55 22.66 31.53h-19.71l-12.8-17.73-13.87 17.73z"/><path d="m39.54 21.46h-19.7v37.08l19.7-27.3z"/><path d="m224.14 63.12c-5.32 0-9.66-4.44-9.66-9.89v-11.18h5.26v11.17c0 2.55 1.97 4.63 4.39 4.63s4.39-2.08 4.39-4.63v-11.17h5.26v11.17c.02 5.46-4.31 9.9-9.64 9.9z"/><path d="m185.18 47.29c-.58-.47-1.16-.82-1.73-1.04-.58-.23-1.14-.34-1.68-.34-.69 0-1.25.16-1.68.49s-.65.75-.65 1.27c0 .36.11.66.32.89.22.23.5.44.85.61s.75.32 1.19.45.88.26 1.31.41c1.73.58 3 1.35 3.81 2.32.8.97 1.21 2.23 1.21 3.78 0 1.05-.18 2-.53 2.85s-.87 1.58-1.54 2.18-1.51 1.07-2.49 1.41-2.1.5-3.35.5c-2.58 0-4.98-.77-7.18-2.3l2.28-4.28c.8.7 1.58 1.23 2.36 1.57s1.54.52 2.3.52c.87 0 1.51-.2 1.94-.6.42-.4.64-.85.64-1.36 0-.31-.05-.57-.16-.8s-.29-.43-.54-.62-.58-.37-.99-.53-.9-.34-1.48-.54c-.69-.22-1.36-.46-2.02-.72s-1.25-.61-1.76-1.04c-.52-.43-.93-.98-1.25-1.64s-.47-1.5-.47-2.51.17-1.93.5-2.75.8-1.53 1.41-2.11c.6-.59 1.35-1.04 2.22-1.37.88-.33 1.86-.49 2.94-.49 1.01 0 2.07.14 3.17.42s2.16.69 3.17 1.23z"/><path d="m289.62 46.55h-7.07v3.42h6.72v4.5h-6.72v3.52h7.07v4.5h-12.39v-20.44h12.39z"/><path d="m213.49 62.8-3.5-4.49c.01-.01.02-.03.03-.04 1.12-1.71 1.78-3.75 1.78-5.95 0-5.98-4.85-10.84-10.84-10.84s-10.84 4.85-10.84 10.84 4.85 10.84 10.84 10.84c2.01 0 3.84-.75 5.45-1.7l1.29 1.35h5.79zm-17.59-10.48c0-2.79 2.27-5.06 5.06-5.06s5.06 2.27 5.06 5.06-2.27 5.06-5.06 5.06-5.06-2.27-5.06-5.06z"/><path d="m249.93 62.49h5.66l-7.78-20.44h-5.8l-7.78 20.44h5.66l1.14-3.26h7.76zm-7.49-7.28 2.48-7.11 2.48 7.11z"/><path d="m268.17 54.66c2.79 0 4.67-3.05 4.67-6.02s-2.28-6.59-6.13-6.59c-2.79 0-8.9 0-8.9 0v20.44h5.31v-7.49l4.58 7.49h6.05zm-1.63-4.12c-.56.43-1.36.65-2.41.65h-1v-5.04h1c1.05 0 1.85.22 2.41.65s.84 1.06.84 1.87-.28 1.43-.84 1.87z"/><path d="m158.6 50.48 6.48-8.43h6.56l-8.1 9.68 8.86 10.76h-6.89l-6.91-8.86v8.86h-5.31v-20.44h5.31z"/></g><path d="m304.52 44.1c-3.63 0-6.54 2.87-6.54 8.18 0 5.3 2.91 8.18 6.7 8.18 3.46 0 5.87-2.31 5.94-5.98h-5.38v-2.19h7.78v2.19c0 5.05-3.47 8.3-8.34 8.3-5.42 0-9.09-4.03-9.09-10.49s3.7-10.49 8.93-10.49c4.31 0 7.62 2.71 8.38 6.66h-2.55c-.87-2.69-2.88-4.36-5.83-4.36z" fill="#46a0b6"/><path d="m316.96 42.07h6.9c4.79 0 6.94 2.65 6.94 6.26 0 2.71-1.22 4.84-3.82 5.72l4.62 8.44h-2.87l-4.31-7.99c-.17.01-.34.01-.52.01h-4.47v7.98h-2.47zm6.86 10.21c3.27 0 4.55-1.5 4.55-3.95s-1.28-4.07-4.59-4.07h-4.35v8.02z" fill="#46a0b6"/><path d="m342.7 62.77c-5.22 0-9.01-4.03-9.01-10.49s3.79-10.49 9.01-10.49 9.01 4.03 9.01 10.49-3.79 10.49-9.01 10.49zm0-18.67c-3.71 0-6.62 2.87-6.62 8.18 0 5.3 2.91 8.18 6.62 8.18s6.62-2.87 6.62-8.18-2.91-8.18-6.62-8.18z" fill="#46a0b6"/><path d="m371.02 42.07v13.52c0 4.19-3.13 7.26-7.94 7.26s-7.94-3.07-7.94-7.26v-13.52h2.47v13.32c0 2.99 2.05 5.15 5.46 5.15s5.46-2.15 5.46-5.15v-13.32z" fill="#46a0b6"/><path d="m375.1 42.07h6.9c4.8 0 6.94 2.85 6.94 6.46s-2.14 6.5-6.9 6.5h-4.47v7.46h-2.47zm6.86 10.77c3.28 0 4.55-1.85 4.55-4.31 0-2.45-1.27-4.27-4.59-4.27h-4.35v8.57h4.39z" fill="#46a0b6"/><path d="m95.64 42.08h15.3v2.19h-6.41v18.21h-2.47v-18.21h-6.42z" fill="#46a0b6"/><path d="m115.22 42.08h2.47v9.08h10.88v-9.08h2.47v20.4h-2.47v-9.12h-10.88v9.12h-2.47z" fill="#46a0b6"/><path d="m135.11 42.08h12.31v2.19h-9.84v6.89h9.2v2.19h-9.2v6.93h10v2.19h-12.47z" fill="#46a0b6"/></svg>